<svg width="16" height="16" viewBox="0 0 16 16" fill="none" xmlns="http://www.w3.org/2000/svg">
<path d="M14.747 0.211962C14.5779 0.0714905 14.3174 0 13.9631 0H2.03932C1.68506 0 1.42461 0.0727419 1.25551 0.216976C1.0864 0.361211 1.00247 0.585721 1.00247 0.889241C1.00247 1.19903 1.0864 1.42479 1.25551 1.56651C1.42461 1.70698 1.68506 1.77847 2.03932 1.77847H13.9631C14.3174 1.77847 14.5779 1.70573 14.747 1.5615C14.9161 1.41726 15 1.19276 15 0.889241C15 0.57945 14.9161 0.353688 14.747 0.211962Z" fill="black"/>
<path d="M11.9524 7.3221C11.787 7.18163 11.5302 7.11014 11.1834 7.11014H2.02945C1.68136 7.11014 1.42585 7.18288 1.26045 7.32711C1.09504 7.47135 1.01234 7.69586 1.01234 7.99938C1.01234 8.30917 1.09504 8.53492 1.26045 8.67665C1.42585 8.81712 1.6826 8.88861 2.02945 8.88861H11.1834C11.5315 8.88861 11.787 8.81587 11.9524 8.67163C12.1178 8.5274 12.2005 8.3029 12.2005 7.99938C12.2005 7.68959 12.1178 7.46382 11.9524 7.3221Z" fill="black"/>
<path d="M6.7101 3.76765C6.5484 3.62718 6.29906 3.55569 5.96085 3.55569H1.99118C1.65297 3.55569 1.4024 3.62844 1.24193 3.77268C1.08023 3.91691 1 4.14141 1 4.44493C1 4.75472 1.08023 4.98048 1.24193 5.12221C1.40363 5.26268 1.65297 5.33417 1.99118 5.33417H5.96085C6.29906 5.33417 6.54964 5.26142 6.7101 5.11719C6.8718 4.97295 6.95203 4.74845 6.95203 4.44493C6.95203 4.13389 6.8718 3.90813 6.7101 3.76765Z" fill="black"/>
<path d="M6.7101 10.8778C6.5484 10.7373 6.29906 10.6658 5.96085 10.6658H1.99118C1.65297 10.6658 1.4024 10.7386 1.24193 10.8828C1.08023 11.027 1 11.2515 1 11.5551C1 11.8649 1.08023 12.0906 1.24193 12.2323C1.40363 12.3728 1.65297 12.4443 1.99118 12.4443H5.96085C6.29906 12.4443 6.54964 12.3716 6.7101 12.2273C6.8718 12.0831 6.95203 11.8586 6.95203 11.5551C6.95203 11.2453 6.8718 11.0195 6.7101 10.8778Z" fill="black"/>
<path d="M14.747 14.4335C14.5779 14.293 14.3174 14.2215 13.9631 14.2215H2.03932C1.68506 14.2215 1.42461 14.2943 1.25551 14.4385C1.0864 14.5827 1.00247 14.8072 1.00247 15.1108C1.00247 15.4206 1.0864 15.6463 1.25551 15.788C1.42461 15.9285 1.68506 16 2.03932 16H13.9631C14.3174 16 14.5779 15.9273 14.747 15.783C14.9161 15.6388 15 15.4143 15 15.1108C15 14.7997 14.9161 14.574 14.747 14.4335Z" fill="black"/>
</svg>
