<svg width="40" height="40" viewBox="0 0 40 40" fill="none" xmlns="http://www.w3.org/2000/svg">
<rect width="40" height="40" rx="10" fill="#2CB741"/>
<path d="M13.789 29.5602L14.2121 29.8099C15.9901 30.8604 18.0285 31.4161 20.1071 31.4172H20.1117C26.4953 31.4172 31.6909 26.245 31.6936 19.8882C31.6946 16.8075 30.4912 13.9108 28.3044 11.7318C26.1175 9.55278 23.2098 8.35203 20.116 8.35076C13.7273 8.35076 8.5318 13.5222 8.52926 19.8788C8.5284 22.0571 9.14047 24.1786 10.3 26.0143L10.5756 26.4503L9.40526 30.7046L13.789 29.5602ZM6.05957 34L8.03651 26.8125C6.81717 24.7089 6.17563 22.3226 6.17656 19.8779C6.17963 12.23 12.4305 6.00793 20.1117 6.00793C23.8391 6.00953 27.3377 7.45411 29.9688 10.0758C32.5996 12.6976 34.0478 16.1826 34.0465 19.8891C34.0433 27.5366 27.7915 33.7598 20.1117 33.7598C20.1111 33.7598 20.112 33.7598 20.1117 33.7598H20.1056C17.7736 33.7589 15.482 33.1765 13.4467 32.0713L6.05957 34Z" fill="black"/>
<path d="M6.64818 19.8669C6.64818 22.2449 7.27239 24.5419 8.46651 26.5686L6.53963 33.5135L13.6772 31.649C15.6313 32.7299 17.8567 33.2703 20.1092 33.2703C27.5183 33.2703 33.5703 27.2712 33.5703 19.8939C33.5703 16.2999 32.1591 12.949 29.6351 10.4089C27.084 7.89572 23.7188 6.49052 20.1092 6.49052C12.7002 6.49052 6.64818 12.4896 6.64818 19.8669Z" fill="#2CB741"/>
<path d="M6.16714 19.8561C6.16714 22.3194 6.81373 24.6987 8.05067 26.7981L6.05469 33.9921L13.4483 32.0606C15.4724 33.1803 17.7776 33.7401 20.1109 33.7401C27.7856 33.7401 34.0547 27.5259 34.0547 19.8841C34.0547 16.1611 32.5928 12.6901 29.9784 10.0588C27.3358 7.45558 23.8499 5.99999 20.1109 5.99999C12.4362 5.99999 6.16714 12.2142 6.16714 19.8561ZM10.5808 26.4342L10.2997 26.0143C9.14706 24.1668 8.52858 22.0394 8.52858 19.8841C8.52858 13.5019 13.7294 8.35133 20.1109 8.35133C23.2033 8.35133 26.127 9.55499 28.2916 11.7104C30.4844 13.8938 31.6932 16.8049 31.6932 19.8841C31.6932 26.2383 26.4924 31.4168 20.1109 31.4168C18.0306 31.4168 15.9784 30.857 14.2073 29.7933L13.7856 29.5413L9.40007 30.689L10.5808 26.4342Z" fill="url(#paint0_linear_606_207)"/>
<path d="M15.8244 13.985L15.8253 13.985C15.9566 13.9904 15.9698 13.9978 15.9828 14.0053C15.9921 14.0107 16.0678 14.0563 16.1735 14.2902C16.3237 14.6228 16.5665 15.2131 16.7864 15.7521C16.8188 15.8315 16.8511 15.9106 16.8827 15.9881C17.056 16.4135 17.2091 16.7893 17.2558 16.8822C17.2857 16.9419 17.2942 16.9751 17.2961 16.9931C17.2969 17.0007 17.2966 17.0059 17.2958 17.0105C17.295 17.0151 17.2927 17.025 17.2846 17.0411C17.2643 17.0815 17.2466 17.1174 17.2305 17.1498C17.1457 17.3214 17.1089 17.3958 17.0043 17.5177L17.3837 17.8433L17.0047 17.5173C16.9287 17.6056 16.8602 17.6888 16.797 17.7655C16.6892 17.8964 16.5968 18.0085 16.509 18.0957L16.8613 18.4504L16.5097 18.095C16.5061 18.0986 16.5022 18.1024 16.4981 18.1064C16.4188 18.1845 16.2572 18.3437 16.1749 18.564C16.0704 18.8437 16.1154 19.1345 16.277 19.4104C16.4885 19.7718 17.2191 20.9609 18.3136 21.9325C19.4951 22.9815 20.5475 23.4336 21.0233 23.638C21.1093 23.6749 21.1764 23.7038 21.2221 23.7266L21.2226 23.7268C21.4296 23.8299 21.6738 23.9159 21.9373 23.8839C22.221 23.8495 22.426 23.6926 22.5755 23.5221C22.7733 23.2971 23.4637 22.4908 23.7176 22.1116L23.7178 22.1114C23.7281 22.0959 23.7369 22.0842 23.744 22.0754C23.7455 22.0757 23.747 22.0761 23.7486 22.0764C23.7873 22.0854 23.8375 22.1016 23.9154 22.1298L23.9154 22.1299C24.0447 22.1767 24.5222 22.3999 25.0477 22.6525C25.5572 22.8975 26.0701 23.1495 26.242 23.2351C26.3134 23.2706 26.381 23.3031 26.4402 23.3315C26.4563 23.3393 26.4718 23.3467 26.4866 23.3539C26.5587 23.3887 26.6129 23.4154 26.6568 23.4394C26.6657 23.4443 26.6737 23.4487 26.6807 23.4528C26.6846 23.517 26.684 23.6084 26.674 23.7238C26.6523 23.9744 26.5888 24.308 26.4585 24.6716L26.4584 24.6716C26.3713 24.9147 26.0634 25.2365 25.6139 25.5259C25.1712 25.811 24.7365 25.9721 24.5339 25.9904C24.4597 25.9971 24.3909 26.0051 24.3237 26.0129C24.068 26.0425 23.8359 26.0694 23.4196 26.0138C22.8802 25.9418 22.0381 25.7267 20.5835 25.1556C17.4854 23.9391 15.4263 20.9249 14.9437 20.2185C14.9008 20.1557 14.8703 20.1111 14.8527 20.0877C14.8526 20.0875 14.8525 20.0873 14.8524 20.0872L14.8491 20.0828C14.7611 19.9658 14.4316 19.5272 14.1223 18.9209C13.8049 18.2986 13.5312 17.5423 13.5312 16.8023C13.5312 15.4053 14.2022 14.6921 14.5493 14.3232C14.5739 14.297 14.597 14.2725 14.618 14.2496L14.6181 14.2495C14.8262 14.0232 15.0603 13.9773 15.1784 13.9773C15.1898 13.9773 15.2011 13.9773 15.2124 13.9773C15.4356 13.9773 15.6437 13.9773 15.8244 13.985ZM26.6728 23.3818C26.6725 23.3807 26.6724 23.3801 26.6724 23.3801L26.6728 23.3818Z" stroke="black"/>
<defs>
<linearGradient id="paint0_linear_606_207" x1="20.0535" y1="33.9921" x2="20.0535" y2="5.99999" gradientUnits="userSpaceOnUse">
<stop/>
<stop offset="1"/>
</linearGradient>
</defs>
</svg>
